<?xml version="1.0" encoding="utf-8"?>
<!-- Generator: Adobe Illustrator 24.0.2, SVG Export Plug-In . SVG Version: 6.00 Build 0)  -->
<svg version="1.1"
	 id="Layer_1" image-rendering="optimizeQuality" shape-rendering="geometricPrecision" text-rendering="geometricPrecision"
	 xmlns="http://www.w3.org/2000/svg" xmlns:xlink="http://www.w3.org/1999/xlink" x="0px" y="0px" viewBox="0 0 195 119"
	 style="enable-background:new 0 0 195 119;" xml:space="preserve">
<style type="text/css">
	.st0{fill:#E37735;}
	.st1{fill:#FEFEFE;}
	.st2{fill:#F7A939;}
	.st3{fill:#623423;}
</style>
<g id="Слой_x0020_1">
	<path class="st0" d="M8.2,67c-0.4-0.1-0.7-0.3-1.1-0.5c-0.3-0.2-0.8-0.3-1.2-0.2l-0.3,7.2c0.7-0.1,1.3-0.2,1.9-0.4
		c0.6-0.2,1.1-0.6,1.4-1.3C9,71.4,9.1,71,9.2,70.6c0.1-0.4,0.1-0.9,0-1.3c0-0.4-0.1-0.9-0.3-1.3C8.8,67.6,8.5,67.3,8.2,67L8.2,67z
		 M9.9,79.2c-0.5-0.8-1.2-1.3-2-1.6c-0.8-0.3-1.7-0.4-2.6-0.4l0.2,8.1c0.9,0.1,1.7-0.1,2.5-0.4c0.8-0.3,1.4-0.9,1.9-1.7
		c0.1-0.6,0.2-1.2,0.3-1.9C10.3,80.4,10.2,79.8,9.9,79.2z M13.8,67.8c0.4,1.3,0.3,2.5-0.2,3.5c-0.5,1.1-1.3,2-2.3,2.7
		c1.4,0.9,2.5,2,3.4,3.4c0.8,1.3,1.2,2.9,1.2,4.5c-0.1,1.2-0.4,2.2-1,3.2c-0.6,1-1.5,1.7-2.5,2.4c-0.7,0.4-1.5,0.7-2.3,1
		c-0.8,0.2-1.7,0.4-2.5,0.5c-0.9,0.1-1.8,0.2-2.6,0.2c-0.9,0.1-1.8,0.1-2.7,0.1L0,63.1c1.3-0.1,2.7-0.2,4-0.2c1.4,0,2.7,0.1,4,0.4
		s2.4,0.8,3.4,1.5C12.5,65.4,13.2,66.5,13.8,67.8L13.8,67.8z"/>
	<path class="st0" d="M20.8,84.8l2.7-0.2l-1.3-3.7L20.8,84.8z M24.4,89.1c-0.2-0.3-0.3-0.7-0.3-1c0-0.4-0.2-0.7-0.5-1H20
		c-0.2,0.3-0.4,0.7-0.5,1s-0.2,0.8-0.4,1.1c-0.4,0-0.8-0.1-1.2-0.2c-0.4-0.2-0.8-0.3-1.2-0.4l5.4-20.9l5.1,20.9L24.4,89.1L24.4,89.1
		z"/>
	<path class="st0" d="M34.3,71.3c-0.3-0.1-0.6-0.3-0.9-0.4c-0.3-0.2-0.6-0.2-1-0.1l-0.3,5.8c0.5-0.1,1-0.2,1.5-0.3
		c0.5-0.2,0.9-0.5,1.2-1c0.2-0.6,0.3-1.3,0.2-2C35.1,72.5,34.8,71.8,34.3,71.3z M35.7,81.1c-0.4-0.6-0.9-1.1-1.6-1.3
		c-0.6-0.2-1.3-0.3-2-0.3l0.1,6.4c0.7,0,1.4-0.1,2-0.4c0.6-0.3,1.1-0.7,1.5-1.4c0.1-0.5,0.2-1,0.3-1.6C36,82.1,35.9,81.6,35.7,81.1z
		 M38.8,72c0.3,1,0.2,1.9-0.2,2.8c-0.4,0.9-1,1.6-1.8,2.1c1.1,0.7,2,1.6,2.7,2.7c0.7,1.1,1,2.3,0.9,3.6c0,0.9-0.3,1.8-0.8,2.5
		c-0.5,0.8-1.2,1.4-2,1.9c-0.6,0.3-1.2,0.6-1.9,0.8c-0.7,0.2-1.3,0.3-2,0.4c-0.7,0.1-1.4,0.2-2.1,0.2c-0.7,0-1.5,0.1-2.2,0.1
		l-1.6-20.9c1-0.1,2.1-0.1,3.2-0.2c1.1,0,2.2,0.1,3.2,0.3c1,0.2,1.9,0.6,2.7,1.2C37.7,70.1,38.3,70.9,38.8,72L38.8,72z"/>
	<path class="st0" d="M49.7,80.4v8.2l-3.3,0.7l-0.1-9.7l-3.9-8.4L41,68.3l0.2-0.2l4.5,0.3l2.5,7.6l0.2,0.1l0.3-0.3l2.3-7.4v-0.2
		c0.7-0.2,1.4-0.3,2.2-0.4c0.8,0,1.5-0.1,2.2-0.2L49.7,80.4L49.7,80.4z"/>
	<path class="st1" d="M14.2,94.8c-0.4,0.2-0.8,0.3-1.2,0.3c-0.4,0-0.9,0-1.4,0c-0.5,0-0.9,0-1.4,0c-0.4,0-0.9,0.1-1.2,0.3l1.9,22.4
		l-5.4-0.5L5.2,95.7c-0.8-0.2-1.6-0.3-2.5-0.1c-0.8,0.2-1.6,0.2-2.5,0.3c-0.2-0.7-0.2-1.4-0.2-2.1c0-0.7,0-1.5,0-2.2l13.1-0.5h0.7
		L14.2,94.8L14.2,94.8z"/>
	<path class="st1" d="M23,102.1l-0.3-0.3c-0.3-0.2-0.5-0.5-0.7-0.7c-0.2-0.2-0.5-0.4-0.9-0.4c-0.2-0.1-0.4-0.1-0.6-0.2
		c-0.2-0.1-0.4,0-0.6,0.1l-0.6,7.1c0.6-0.1,1.2-0.2,1.7-0.3c0.5-0.2,1-0.5,1.4-1c0.4-0.6,0.6-1.3,0.7-2
		C23.2,103.5,23.1,102.8,23,102.1L23,102.1z M26.9,102.2c0.1,0.8,0.1,1.5-0.1,2.1c-0.2,0.7-0.4,1.3-0.8,1.9
		c-0.4,0.6-0.8,1.1-1.3,1.6c-0.5,0.5-1.1,0.9-1.7,1.3l3,8.4l-2.2,0.3c-0.8-1.2-1.6-2.4-2.3-3.6s-1.4-2.4-2.2-3.6
		c-0.2,1.2-0.3,2.3-0.4,3.5c-0.1,1.2-0.2,2.4-0.3,3.6c-0.5,0.1-1.1,0.2-1.7,0.2s-1.3-0.1-1.8-0.2l1.4-21.3c1,0.1,2.1,0.2,3.2,0.4
		c1.1,0.2,2.2,0.5,3.2,0.9s1.9,1,2.6,1.7C26,100.1,26.6,101,26.9,102.2L26.9,102.2z"/>
	<path class="st1" d="M31.8,113.4l2.7-0.2l-1.3-3.7L31.8,113.4z M35.5,117.7c-0.2-0.3-0.3-0.7-0.3-1c0-0.4-0.2-0.7-0.5-1h-3.6
		c-0.2,0.3-0.4,0.7-0.5,1s-0.2,0.8-0.4,1.1c-0.4,0-0.8-0.1-1.2-0.2c-0.4-0.2-0.8-0.3-1.2-0.4l5.4-20.9l5.1,20.9L35.5,117.7
		L35.5,117.7z"/>
	<path class="st1" d="M50.5,108.7l0.3-2.5l0.1-9.7l3.9,1.2l-1.8,20.1l-8.1-9.9c-0.1-0.1-0.2-0.2-0.3-0.2l-0.1,0.2l1,10h-3.3
		l-3.3-21.5l11.5,12.2L50.5,108.7L50.5,108.7z"/>
	<path class="st1" d="M59.8,96.5c0.3,0.5,0.6,0.8,0.8,1.1c0.2,0.3,0.4,0.5,0.6,0.7s0.3,0.3,0.3,0.3l-0.1,0c-0.1,0.1-0.4,0.2-0.7,0.5
		s-0.7,0.5-1.1,0.9c-0.4,0.4-0.7,0.8-1,1.2c-0.3,0.5-0.4,1-0.4,1.5c0,0.6,0.2,1.2,0.6,1.9c0.4,0.7,0.8,1.4,1.3,2.1
		c0.4,0.8,0.8,1.6,1.2,2.4c0.3,0.8,0.5,1.7,0.5,2.7c-0.1,0.9-0.3,1.8-0.7,2.6c-0.4,0.8-0.8,1.4-1.3,1.9c-0.5,0.5-1.1,1-1.8,1.6
		l-1.8-1.8c0.5-0.3,0.9-0.6,1.2-0.9c0.3-0.3,0.6-0.8,0.8-1.4c0.2-0.6,0.4-1.4,0.4-2.3c0-0.9-0.2-1.8-0.5-2.5c-0.3-0.7-0.7-1.3-1.1-2
		c-0.4-0.6-0.8-1.3-1.1-1.9c-0.3-0.7-0.5-1.4-0.4-2.3c0.1-0.8,0.3-1.7,0.8-2.4c0.5-0.8,1-1.5,1.6-2.1C58.1,97.8,58.9,97.1,59.8,96.5
		L59.8,96.5z"/>
	<path class="st1" d="M65.8,100.6c-0.2,0.7-0.2,1.3-0.1,2c0.1,0.6,0.2,1.3,0.2,2c0.7-0.1,1.4-0.2,2.1-0.2c0.7,0,1.4,0,2.2,0l1.3,2.5
		l-5.4,0.4l-0.3,0.3v10.5c-0.5-0.1-1-0.2-1.4-0.4s-0.9-0.4-1.4-0.6l-0.8-20.4l9.9,1l-1.3,3.1c-1.2-0.1-2.1-0.2-2.8-0.1
		C67.2,100.7,66.5,100.6,65.8,100.6L65.8,100.6z"/>
	<path class="st1" d="M82.4,99.3c-0.9,0.2-1.9,0.3-2.8,0.4c-0.9,0.1-1.9,0.1-3,0.1l-0.8,0.2l0.7,3.9l4,0.1c0.2,0.5,0.4,1,0.7,1.5
		c0.3,0.5,0.4,1.1,0.6,1.6c-0.8,0.1-1.7,0.1-2.4-0.1c-0.8-0.1-1.6-0.2-2.5-0.1c0.1,1.1,0.1,2.3,0,3.6c0,1.3,0,2.5,0.1,3.6
		c0.4,0.1,0.9,0.2,1.3,0.2c0.4,0,0.9,0,1.3-0.1c0.4,0,0.9-0.1,1.3-0.1c0.4,0,0.9,0,1.4,0l0.3,3l-2,0.3l-7,0.4l-0.9-21.1l9-0.4h0.5
		L82.4,99.3L82.4,99.3z"/>
	<path class="st1" d="M91.5,102.1l-0.3-0.3c-0.3-0.2-0.5-0.5-0.7-0.7c-0.2-0.2-0.5-0.4-0.9-0.4c-0.2-0.1-0.4-0.1-0.6-0.2
		c-0.2-0.1-0.4,0-0.6,0.1l-0.6,7.1c0.6-0.1,1.2-0.2,1.7-0.3c0.5-0.2,1-0.5,1.4-1c0.4-0.6,0.6-1.3,0.7-2
		C91.7,103.5,91.7,102.8,91.5,102.1L91.5,102.1z M95.4,102.2c0.1,0.8,0.1,1.5-0.1,2.1c-0.2,0.7-0.4,1.3-0.8,1.9
		c-0.4,0.6-0.8,1.1-1.3,1.6c-0.5,0.5-1.1,0.9-1.7,1.3l3,8.4l-2.2,0.3c-0.8-1.2-1.6-2.4-2.3-3.6c-0.7-1.2-1.4-2.4-2.2-3.6
		c-0.2,1.2-0.3,2.3-0.4,3.5c-0.1,1.2-0.2,2.4-0.3,3.6c-0.5,0.1-1.1,0.2-1.7,0.2c-0.7,0-1.3-0.1-1.8-0.2l1.4-21.3
		c1,0.1,2.1,0.2,3.2,0.4c1.1,0.2,2.2,0.5,3.2,0.9c1,0.4,1.9,1,2.6,1.7C94.5,100.1,95.1,101,95.4,102.2L95.4,102.2z"/>
	<path class="st2" d="M138.9,68c0,0,0.5,2.3-0.5-5.4c-2.5-19.2-19.3-34.8-65.6-25.8c-6.4,1.2-9.2-18.5-15-18.9
		c-4.3-0.3-25.8,9.8-30.4,12.8c-2.1,1.3-1.8,8.1,0.6,10c3.2,2.5,11.4,0,17.5-2.5c3.3-1.3,11.6,4.7,12.2,8.2
		c1.5,8.3,0.6,21.5,12.7,32.9c0,0,0.6,5.9,1.5,5.7c0.4-0.1,0.9-0.9,1.3-1.8c0.5-1,1.6,2.2,2.8,2.4c2.2,0.4-1.3-4.4-0.5-4.1
		c1.4,0.5,2.1,1.5,3.5,0.8c2-1-3-3.8-3-3.8s2.8-0.9,2.2-1.9c-0.5-1-6.7-0.4-6.7-0.4s-4.6-9.7-2.8-13.9c1.8-4.3,6.5,3.9,12.5,12.1
		c5.9,8.2,23.6,23.8,41.4,23.1c0,0,0,9.2,9.3,11.9c0,0-24.9,4.2-21.8,6.9c5.2,4.6,21.6,2.5,27.7-0.8c6-3.3-7-28.3-0.3-28.3
		c1.2,0,14.2,29.5,51.1,25.5c2.7-0.3,6.6-2.3,6.4-3.4c-0.4-1.7-3,0.3-10.4,0.4C155.4,110.3,139.1,68.3,138.9,68L138.9,68z"/>
	<path class="st3" d="M34.1,30.2c-1.5,1.8-6.7,0.3-6.7,0.3s-0.3-0.4,6.8-3.6C34.9,26.6,34.6,29.7,34.1,30.2L34.1,30.2z"/>
	<path class="st3" d="M58.6,14.5c0.6-0.6,1.4-9.7,1.8-13.8c0-0.4-0.1-0.6-0.3-0.6h0c-1,0-4,3.4-4.3,7.5
		C55.4,12.3,57.3,15.8,58.6,14.5L58.6,14.5z"/>
	<path class="st3" d="M56.5,16.2C56,13.7,51.7,3.9,50.7,2c-1.1-2.3-4.1,3.7-1.8,10C50.6,16.8,56.9,18.3,56.5,16.2z"/>
	<path class="st3" d="M48.4,25.3c0,0.9-0.4,1.7-0.8,1.7c-0.4,0-0.8-0.7-0.8-1.7c0-0.9,0.4-1.7,0.8-1.7
		C48.1,23.6,48.4,24.4,48.4,25.3z"/>
	<path class="st0" d="M115.3,58.2c-1.2,1.7-2.7,3.2-4.4,4.5c-0.9-5-2-9.7-3.1-10.3C102,49.3,87.1,57,84,59.7c-1.6,1.4,0.3,7,2.2,8
		c2.1,1.1,10.7-3.2,11.3-3.1c0.5,0.1-0.1,2-1.1,4.6C87.7,71.6,79.6,72,79.6,72s7.2,0.3,16.2-1.4c-2,5-5.1,11.5-5.1,11.5l21.8-7.1
		c0,0-0.5-4.4-1.2-9.3c1.2-0.6,2.3-1.2,3.4-1.8c2.2-1.3,8.1,34.1,6.5,36.2c0,0,0,0,0,0c1.1-0.4,1.7-0.8,1.7-0.8
		C125.5,88.8,121.1,49.5,115.3,58.2L115.3,58.2z"/>
	<path class="st2" d="M79.6,72c0,0,19.9,0.8,35.1-8.1c2.2-1.3,8.1,34.1,6.5,36.2C121.2,100,96.1,110.4,79.6,72L79.6,72z"/>
	<path class="st3" d="M90,59.4c-0.9,1.2-5.5-0.1-5.5-0.1s1.9-1.6,4.2-2.6C89.4,56.4,90.4,58.8,90,59.4L90,59.4z"/>
	<path class="st3" d="M106.1,49.1c0.4-0.4,0.9-6,1.1-8.5c0.1-1.3-2.6,1.1-2.9,4.3C104.1,47.7,105.3,49.9,106.1,49.1L106.1,49.1z"/>
	<path class="st3" d="M104.8,50.1c-0.3-1.5-2.9-7.6-3.5-8.7c-0.7-1.4-2.5,2.3-1.1,6.1C101.2,50.5,105,51.4,104.8,50.1z"/>
	<path class="st3" d="M99.1,56.5c0,0.9-0.4,1.7-0.8,1.7s-0.8-0.7-0.8-1.7c0-0.9,0.4-1.7,0.8-1.7C98.7,54.9,99.1,55.6,99.1,56.5z"/>
</g>
</svg>
