<?xml version="1.0" encoding="utf-8"?>
<!-- Generator: Adobe Illustrator 24.0.2, SVG Export Plug-In . SVG Version: 6.00 Build 0)  -->
<svg version="1.1" id="Capa_1" xmlns="http://www.w3.org/2000/svg" xmlns:xlink="http://www.w3.org/1999/xlink" x="0px" y="0px"
	 viewBox="0 0 512 512" style="enable-background:new 0 0 512 512;" xml:space="preserve">
<style type="text/css">
	.st0{fill:#9292A2;}
</style>
<g>
	<g id="XMLID_1_">
		<g>
			<path class="st0" d="M492.6,368.2c2.6,2.6,4,6,4,9.6c0,3.6-1.4,7.1-4,9.6L454,426c-1.6,1.6-2.4,3.7-2.4,5.8s0.8,4.2,2.4,5.8
				l31.6,31.6c2.6,2.6,4,6,4,9.6c0,3.6-1.4,7.1-4,9.6c-5.3,5.3-14,5.3-19.3,0L221.4,243.1c-2.8-2.8-7.3-3.2-10.5-0.9
				C162,277,95.7,271.4,53.3,228.9c-23.1-23.2-35.8-54-35.8-86.7c0-32.7,12.8-63.5,36-86.6c23.2-23.1,53.9-35.8,86.7-35.8
				c32.7,0,63.5,12.8,86.6,36c23.1,23.2,35.8,53.9,35.8,86.7c0,25.7-7.9,50.2-22.7,71c-2.3,3.3-1.9,7.7,0.9,10.5L361.6,345
				c1.5,1.5,3.6,2.4,5.8,2.4c2.2,0,4.3-0.9,5.8-2.4l38.5-38.5c2.6-2.6,6-4,9.6-4c3.6,0,7.1,1.4,9.6,4c2.6,2.6,4,6,4,9.6
				c0,3.6-1.4,7.1-4,9.6l-23.1,23.1c-3.2,3.2-3.2,8.4,0,11.5l30.8,30.8c3.2,3.2,8.4,3.2,11.5,0l23.1-23.1
				C478.6,362.9,487.3,362.9,492.6,368.2z M235.3,145.2c0-1,0.1-1.9,0.1-2.9c0-1.7,0-3.3-0.1-5c-1.2-23.5-10.9-45.5-27.7-62.3
				c-10.7-10.7-23.7-18.6-37.8-23.3c-0.6-0.2-1.2-0.4-1.9-0.6c-0.5-0.1-0.9-0.3-1.3-0.4c-0.9-0.3-1.9-0.5-2.8-0.8
				c-1.4-0.4-2.7-0.7-4.1-1c-2.8-0.6-5.7-1.1-8.6-1.4c-0.2,0-0.3,0-0.5,0c-0.6-0.1-1.3-0.1-1.9-0.2c0,0-0.1,0-0.1,0
				c-0.7-0.1-1.5-0.1-2.2-0.2c-0.7,0-1.4-0.1-2.1-0.1c-0.2,0-0.3,0-0.5,0c-2.9-0.1-5.8-0.1-8.7,0.1c-9.4,0.5-18.4,2.3-27,5.4
				c-0.8,0.3-1.7,0.6-2.5,0.9c-0.8,0.3-1.6,0.6-2.4,1c-0.8,0.3-1.5,0.6-2.3,1c-0.2,0.1-0.3,0.1-0.5,0.2c-0.7,0.3-1.3,0.6-2,0.9
				c-0.7,0.3-1.4,0.7-2.1,1.1c-1,0.5-1.9,1-2.9,1.6c-0.3,0.2-0.7,0.4-1,0.6c-0.5,0.3-1,0.5-1.5,0.8c-0.7,0.4-1.3,0.8-2,1.2
				c-1.3,0.8-2.6,1.7-3.9,2.6c-0.4,0.3-0.8,0.5-1.1,0.8c-0.9,0.7-1.8,1.4-2.7,2.1c-0.5,0.4-0.9,0.7-1.3,1.1
				c-0.2,0.2-0.4,0.3-0.6,0.5c-0.4,0.3-0.8,0.6-1.1,0.9c-0.2,0.2-0.5,0.4-0.7,0.6c-0.4,0.4-0.9,0.8-1.3,1.2
				c-0.1,0.1-0.2,0.2-0.2,0.2c-0.5,0.5-1.1,1-1.6,1.5c-0.5,0.5-1,0.9-1.4,1.4c-10.7,10.7-18.5,23.5-23.2,37.4c-0.5,1.7-1,3.3-1.5,5
				c-0.2,0.5-0.3,1.1-0.4,1.7c-0.2,0.8-0.4,1.5-0.5,2.3c-0.5,2.3-0.9,4.5-1.3,6.8c0,0,0,0.1,0,0.2c-0.6,3.8-0.9,7.7-1,11.7
				c0,1.6,0,3.2,0,4.8c0,0.8,0,1.6,0.1,2.4c0,0.1,0,0.2,0,0.3c0,0.7,0.1,1.3,0.1,2c0,0,0,0.1,0,0.1c0,0.4,0.1,0.7,0.1,1.1
				c0,0.5,0.1,1.1,0.1,1.6c0.1,0.8,0.2,1.7,0.3,2.5c2.6,20.8,12,40,27.1,55.1c6.6,6.6,13.9,12,21.6,16.2c1.3,0.7,2.6,1.4,3.9,2.1
				c1.9,1,3.9,1.9,6,2.7c12.6,5.2,26.5,7.7,40.9,6.9c25.4-1.3,48.8-12.5,65.8-31.4c2.6-2.9,5-5.8,7.1-8.9c0.5-0.6,0.9-1.3,1.3-1.9
				c0.4-0.6,0.9-1.3,1.3-1.9c0.4-0.7,0.8-1.3,1.2-2c0.4-0.7,0.8-1.3,1.2-2c0.4-0.7,0.8-1.3,1.1-2c0,0,0-0.1,0.1-0.1
				c0.3-0.5,0.6-1,0.8-1.6c0.1-0.2,0.3-0.5,0.4-0.7c0.3-0.6,0.6-1.2,0.9-1.8c0.7-1.4,1.3-2.8,1.9-4.2c4.2-10,6.6-20.7,7.1-31.7
				C235.2,146.5,235.3,145.8,235.3,145.2z"/>
			<path class="st0" d="M504.1,356.7c5.7,5.7,8.8,13.2,8.8,21.2c0,8-3.1,15.5-8.8,21.2l-32.8,32.7l25.8,25.8
				c5.6,5.7,8.8,13.2,8.8,21.2c0,8-3.1,15.5-8.8,21.2c-11.7,11.7-30.7,11.6-42.4,0L214.6,259.4c-25.3,16.1-55.5,23.7-85.7,21.3
				C96,278.1,65,263.8,41.7,240.4c-26.2-26.3-40.6-61.1-40.6-98.2c0-37.1,14.5-72,40.8-98.2C68.1,17.8,103,3.3,140.1,3.4
				c37.1,0,72,14.5,98.2,40.8c26.2,26.3,40.6,61.1,40.6,98.2c0,26.8-7.5,52.4-21.9,74.7l110.4,110.6l32.8-32.7
				c5.7-5.7,13.2-8.8,21.2-8.8s15.5,3.1,21.2,8.8c5.6,5.7,8.8,13.2,8.8,21.2c0,8-3.1,15.5-8.8,21.2l-17.3,17.3l19.2,19.3l17.4-17.3
				C473.5,345,492.5,345,504.1,356.7z M496.6,377.9c0-3.6-1.4-7.1-4-9.6c-5.3-5.3-13.9-5.3-19.3,0l-23.1,23.1
				c-3.2,3.2-8.4,3.2-11.5,0l-30.8-30.8c-3.2-3.2-3.2-8.4,0-11.5l23.1-23.1c2.6-2.6,4-6,4-9.6c0-3.6-1.4-7.1-4-9.6
				c-2.6-2.6-6-4-9.6-4c-3.6,0-7.1,1.4-9.6,4L373.2,345c-1.5,1.5-3.6,2.4-5.8,2.4c-2.2,0-4.2-0.9-5.8-2.4L240.7,223.9
				c-2.8-2.8-3.2-7.3-0.9-10.5c14.8-20.8,22.7-45.3,22.7-71c0-32.7-12.7-63.5-35.8-86.7c-23.1-23.2-53.9-35.9-86.6-36
				c-32.7,0-63.5,12.7-86.7,35.8c-23.2,23.1-35.9,53.9-36,86.6c0,32.7,12.7,63.5,35.8,86.7C95.7,271.4,162,277,210.9,242.2
				c3.3-2.3,7.7-1.9,10.5,0.9l244.9,245.3c5.3,5.3,14,5.3,19.3,0c2.6-2.6,4-6,4-9.6c0-3.6-1.4-7.1-4-9.6L454,437.5
				c-1.6-1.6-2.4-3.7-2.4-5.8s0.8-4.2,2.4-5.8l38.5-38.5C495.1,384.9,496.6,381.5,496.6,377.9z"/>
			<path class="st0" d="M235.3,142.3c0,1,0,2-0.1,2.9c0,0.6,0,1.3-0.1,1.9c-0.6,11.1-3,21.8-7.1,31.7c-0.6,1.4-1.2,2.8-1.9,4.2
				c-0.3,0.6-0.6,1.2-0.9,1.8c-0.1,0.3-0.2,0.5-0.4,0.7c-0.3,0.5-0.6,1.1-0.8,1.6c0,0,0,0.1-0.1,0.1c-0.4,0.7-0.7,1.3-1.1,2
				s-0.8,1.3-1.2,2c-0.4,0.7-0.8,1.3-1.2,2c-0.4,0.7-0.9,1.3-1.3,1.9c-0.4,0.7-0.9,1.3-1.3,1.9c-3.1,4.5-6.7,8.7-10.6,12.6
				c-27.9,27.8-68.9,34.8-103.3,20.8c-2-0.8-4-1.7-6-2.7c-1.3-0.6-2.7-1.3-3.9-2.1c-25.9-14.3-44.7-40.3-48.7-71.3
				c-0.1-0.8-0.2-1.7-0.3-2.5c-0.1-0.5-0.1-1-0.1-1.6c0-0.4-0.1-0.7-0.1-1.1c0,0,0-0.1,0-0.1c0-0.8-0.1-1.5-0.1-2.3
				c0-0.8-0.1-1.6-0.1-2.4c0-0.8,0-1.6,0-2.5c0-0.8,0-1.6,0-2.4c0.1-3.9,0.4-7.8,1-11.7c0-0.1,0-0.1,0-0.2c0.3-2.3,0.8-4.6,1.3-6.8
				c0.2-0.8,0.3-1.5,0.5-2.3c0.1-0.6,0.3-1.1,0.4-1.7c0.5-1.7,1-3.4,1.5-5c4.1-12.3,10.7-23.7,19.6-33.7c1.6-1.8,3.3-3.5,5-5.1
				c0.5-0.5,1-1,1.6-1.5c0.1-0.1,0.2-0.2,0.2-0.2c0.4-0.4,0.9-0.8,1.3-1.2c0.2-0.2,0.5-0.4,0.7-0.6c0.4-0.3,0.7-0.6,1.1-0.9
				c0.2-0.2,0.4-0.3,0.6-0.5c0.4-0.4,0.9-0.7,1.3-1.1c0.9-0.7,1.8-1.4,2.7-2.1c0.4-0.3,0.8-0.5,1.1-0.8c1.3-0.9,2.5-1.8,3.9-2.6
				c0.7-0.4,1.3-0.8,2-1.2c0.5-0.3,1-0.6,1.5-0.8c0.3-0.2,0.7-0.4,1-0.6c1-0.5,1.9-1.1,2.9-1.6c0.7-0.4,1.4-0.7,2.1-1.1
				c0.7-0.3,1.3-0.6,2-0.9c0.2-0.1,0.3-0.2,0.5-0.2c0.8-0.3,1.5-0.7,2.3-1c0.8-0.3,1.6-0.7,2.4-1c0.8-0.3,1.7-0.6,2.5-0.9
				c4-1.4,8.5,0.2,10.4,4c2.1,4.5-0.1,9.7-4.6,11.3c-0.1,0-0.3,0.1-0.4,0.1c-0.6,0.2-1.2,0.4-1.8,0.7c-0.7,0.3-1.3,0.5-2,0.8
				c-0.6,0.3-1.3,0.5-1.9,0.8c-1.2,0.6-2.5,1.1-3.7,1.8c-0.5,0.2-0.9,0.5-1.4,0.7c-0.1,0-0.1,0-0.2,0.1c-0.5,0.3-1,0.5-1.5,0.8
				c-0.1,0.1-0.2,0.1-0.3,0.2c-0.5,0.3-0.9,0.5-1.4,0.8c-1.7,1-3.3,2.1-4.9,3.2c-1,0.7-2.1,1.5-3.1,2.3c-0.5,0.4-1,0.8-1.5,1.2
				c-0.5,0.4-1,0.8-1.5,1.3c-0.4,0.3-0.8,0.7-1.2,1c-0.3,0.2-0.5,0.4-0.7,0.7c-0.3,0.3-0.7,0.6-1,0.9c-0.4,0.4-0.8,0.8-1.2,1.2
				c-1.5,1.4-2.8,2.9-4.1,4.5c-2,2.3-3.9,4.7-5.5,7.2c-2.7,4-5,8.2-7,12.6c-0.5,1.1-0.9,2.2-1.4,3.3c-0.2,0.6-0.4,1.1-0.6,1.7
				c-0.6,1.5-1.1,3.1-1.5,4.7c-0.2,0.8-0.4,1.6-0.6,2.3c-0.1,0.4-0.2,0.9-0.3,1.3c-0.1,0.4-0.2,0.8-0.3,1.2c-0.1,0.5-0.2,1-0.3,1.5
				c-0.1,0.6-0.2,1.1-0.3,1.7c0,0.2-0.1,0.4-0.1,0.7c-0.1,0.5-0.2,1-0.2,1.5c-0.1,0.5-0.2,1-0.2,1.6c0,0.3-0.1,0.5-0.1,0.8
				c-0.1,0.5-0.1,1-0.2,1.5c-0.1,0.5-0.1,1.1-0.1,1.6c-0.1,0.8-0.1,1.5-0.1,2.3c-0.1,1.3-0.1,2.6-0.1,3.9c0,0,0,0.1,0,0.1
				c0,1.3,0,2.6,0.1,3.9c0,0.1,0,0.2,0,0.2c0,0.1,0,0.2,0,0.4c0.1,1.2,0.2,2.4,0.3,3.6c1.8,18,9.7,34.7,22.7,47.7
				c5.9,5.9,12.5,10.7,19.5,14.3c0.4,0.2,0.9,0.5,1.3,0.7c0.6,0.3,1.2,0.6,1.8,0.8c11.3,5.3,24.1,8,37.5,7.3
				c21.1-1.1,40.4-10.4,54.6-26c0.8-0.9,1.6-1.8,2.4-2.8c0,0,0,0,0,0c1.2-1.5,2.4-3,3.5-4.6c0.3-0.4,0.6-0.9,0.9-1.3
				c0.2-0.3,0.4-0.6,0.6-0.9c0.3-0.4,0.5-0.7,0.7-1.1c0.3-0.5,0.6-0.9,0.9-1.4c0.1-0.1,0.2-0.3,0.3-0.4c0.3-0.4,0.5-0.9,0.8-1.3
				c0-0.1,0.1-0.2,0.1-0.2c0.3-0.5,0.6-1.1,0.9-1.6c0.3-0.5,0.5-1,0.8-1.5c0.1-0.1,0.2-0.3,0.2-0.4c0.2-0.4,0.4-0.9,0.7-1.4
				c0-0.1,0.1-0.2,0.1-0.3c0.3-0.5,0.5-1.1,0.8-1.6c0.3-0.6,0.5-1.2,0.8-1.8c0.5-1.1,0.9-2.2,1.3-3.3c0.1-0.1,0.1-0.2,0.1-0.4
				c0.9-2.4,1.6-4.8,2.2-7.3c0.2-0.6,0.3-1.3,0.4-1.9c0.2-0.6,0.3-1.3,0.4-1.9c0.1-0.6,0.3-1.3,0.3-1.9c0.1-0.6,0.2-1.3,0.3-1.9
				c0.1-0.5,0.1-1,0.2-1.5c0-0.3,0.1-0.6,0.1-0.9c0.1-0.5,0.1-1,0.2-1.5c0-0.4,0.1-0.7,0.1-1.1c0-0.4,0.1-0.8,0.1-1.1
				c0.1-1.2,0.1-2.4,0.2-3.6c0-0.6,0-1.3,0-1.9c0-21.1-8.2-40.9-23.1-55.9c-0.4-0.4-0.7-0.7-1.1-1.1c-2.9-3.2-2.8-8.1,0.2-11.2
				c3.2-3.2,8.3-3.3,11.6-0.1c17.2,16.8,27.3,39.2,28.6,63.1C235.3,138.9,235.3,140.6,235.3,142.3z"/>
			<path class="st0" d="M235.3,142.3c0-1.7-0.1-3.3-0.1-5C235.3,138.9,235.3,140.6,235.3,142.3z"/>
			<path class="st0" d="M235.2,147.1c0-0.6,0.1-1.3,0.1-1.9C235.3,145.8,235.2,146.5,235.2,147.1z"/>
			<path class="st0" d="M228.1,178.8c4.1-10,6.6-20.7,7.1-31.7C234.7,158.1,232.3,168.8,228.1,178.8z"/>
			<path class="st0" d="M226.2,183.1c0.7-1.4,1.3-2.8,1.9-4.2C227.5,180.3,226.9,181.7,226.2,183.1z"/>
			<path class="st0" d="M225.3,184.8c0.3-0.6,0.6-1.2,0.9-1.8C225.9,183.7,225.6,184.3,225.3,184.8z"/>
			<path class="st0" d="M224.1,187.1c0.3-0.5,0.5-1,0.8-1.6C224.7,186.1,224.4,186.6,224.1,187.1z"/>
			<path class="st0" d="M223,189.2c0.4-0.7,0.8-1.3,1.1-2C223.7,187.9,223.4,188.6,223,189.2z"/>
			<path class="st0" d="M221.8,191.2c0.4-0.7,0.8-1.3,1.2-2C222.6,189.9,222.2,190.6,221.8,191.2z"/>
			<path class="st0" d="M220.6,193.2c0.4-0.7,0.8-1.3,1.2-2C221.4,191.9,221,192.6,220.6,193.2z"/>
			<path class="st0" d="M219.3,195.2c0.4-0.6,0.9-1.3,1.3-1.9C220.2,193.9,219.7,194.5,219.3,195.2z"/>
			<path class="st0" d="M218,197.1c0.4-0.6,0.9-1.3,1.3-1.9C218.9,195.8,218.4,196.5,218,197.1z"/>
			<path class="st0" d="M195.9,86.5c14.9,14.9,23.1,34.8,23.1,55.9c0,0.6,0,1.3,0,1.9c0.1-2,0-4.1-0.1-6.1
				c-1-19.8-9.5-38.4-23.7-52.3c-0.1-0.1-0.3-0.3-0.4-0.4C195.2,85.8,195.5,86.1,195.9,86.5z"/>
			<path class="st0" d="M218.7,149c0-0.4,0.1-0.8,0.1-1.1C218.8,148.2,218.7,148.6,218.7,149z"/>
			<path class="st0" d="M218.6,150.1c0-0.4,0.1-0.7,0.1-1.1C218.7,149.4,218.6,149.7,218.6,150.1z"/>
			<path class="st0" d="M218.3,152.6c0-0.3,0.1-0.6,0.1-0.9C218.4,151.9,218.4,152.2,218.3,152.6z"/>
			<path class="st0" d="M218.1,154c0.1-0.5,0.1-1,0.2-1.5C218.3,153.1,218.2,153.5,218.1,154z"/>
			<path class="st0" d="M217.8,155.9c0.1-0.6,0.2-1.3,0.3-1.9C218,154.7,217.9,155.3,217.8,155.9z"/>
			<path class="st0" d="M217.4,157.9c0.1-0.6,0.2-1.3,0.3-1.9C217.7,156.6,217.6,157.2,217.4,157.9z"/>
			<path class="st0" d="M217,159.7c0.1-0.6,0.3-1.3,0.4-1.9C217.3,158.5,217.2,159.1,217,159.7z"/>
			<path class="st0" d="M216.6,161.6c0.2-0.6,0.3-1.3,0.4-1.9C216.9,160.4,216.8,161,216.6,161.6z"/>
			<path class="st0" d="M214.4,168.9c0.8-2.4,1.6-4.8,2.2-7.3C216,164.1,215.3,166.5,214.4,168.9z"/>
			<path class="st0" d="M213,172.6c0.5-1.1,0.9-2.2,1.3-3.3C213.9,170.4,213.4,171.5,213,172.6z"/>
			<path class="st0" d="M212.2,174.3c0.3-0.6,0.5-1.2,0.8-1.8C212.7,173.1,212.5,173.7,212.2,174.3z"/>
			<path class="st0" d="M211.5,176c0.3-0.5,0.5-1.1,0.8-1.6C212,174.9,211.7,175.4,211.5,176z"/>
			<path class="st0" d="M210.7,177.6c0.2-0.4,0.4-0.9,0.7-1.4C211.1,176.7,210.9,177.2,210.7,177.6z"/>
			<path class="st0" d="M209.7,179.5c0.3-0.5,0.5-1,0.8-1.5C210.2,178.5,209.9,179,209.7,179.5z"/>
			<path class="st0" d="M208.8,181.1c0.3-0.5,0.6-1.1,0.9-1.6C209.4,180,209.1,180.6,208.8,181.1z"/>
			<path class="st0" d="M207.9,182.6c0.3-0.4,0.5-0.9,0.8-1.3C208.4,181.7,208.2,182.2,207.9,182.6z"/>
			<path class="st0" d="M206.8,184.4c0.3-0.5,0.6-0.9,0.9-1.4C207.4,183.5,207.1,184,206.8,184.4z"/>
			<path class="st0" d="M205.5,186.4c0.2-0.3,0.4-0.6,0.6-0.9C205.9,185.8,205.7,186.1,205.5,186.4z"/>
			<path class="st0" d="M201.1,192.3c1.2-1.5,2.4-3,3.5-4.6C203.5,189.3,202.3,190.8,201.1,192.3z"/>
			<path class="st0" d="M176.1,54.1c3.9,1.6,6.2,5.9,5,9.9c-1.3,4.6-6.2,7-10.6,5.5c0,0,0,0,0,0c-1.3-0.5-2.6-1.1-3.9-1.5
				c0,0-0.1,0-0.1,0c-0.6-0.2-1.2-0.4-1.8-0.6c-0.6-0.2-1.2-0.4-1.8-0.6c-0.8-0.3-1.6-0.5-2.4-0.7c-0.4-0.1-0.7-0.2-1.1-0.3
				c-0.5-0.1-1-0.3-1.5-0.3c-0.5-0.1-1.1-0.3-1.6-0.4c-0.1,0-0.3-0.1-0.4-0.1c-0.4-0.1-0.8-0.2-1.3-0.3c-0.2,0-0.3-0.1-0.5-0.1
				c-0.5-0.1-1.1-0.2-1.6-0.3c-0.6-0.1-1.2-0.2-1.8-0.3c-0.7-0.1-1.5-0.2-2.2-0.3c-0.5-0.1-1-0.1-1.5-0.1c-0.6,0-1.1-0.1-1.7-0.1
				c-0.1,0-0.3,0-0.4,0c-0.4,0-0.9-0.1-1.4-0.1c-0.1,0-0.2,0-0.3,0c-4.5-0.2-8-4-7.8-8.5c0.2-4.4,3.8-7.8,8.1-7.8c0.2,0,0.3,0,0.5,0
				c0.7,0,1.4,0.1,2.1,0.1c0.7,0,1.5,0.1,2.2,0.2c0,0,0.1,0,0.1,0c0.6,0.1,1.3,0.1,1.9,0.2c0.2,0,0.3,0,0.5,0
				c2.9,0.3,5.8,0.8,8.6,1.4c1.4,0.3,2.7,0.6,4.1,1c1,0.2,1.9,0.5,2.8,0.8c0.5,0.1,0.9,0.3,1.3,0.4c0.6,0.2,1.2,0.4,1.9,0.6
				C171.8,52.4,174,53.2,176.1,54.1z"/>
			<path class="st0" d="M207.4,74.9c16.8,16.8,26.5,38.8,27.7,62.3c-1.3-24-11.4-46.4-28.6-63.1c-3.2-3.2-8.4-3.1-11.6,0.1
				c-3,3.1-3.1,8-0.2,11.2c-7.1-6.8-15.3-12.2-24.2-16c4.4,1.5,9.3-0.8,10.6-5.5c1.2-4-1.1-8.3-5-9.9c-2.2-0.9-4.3-1.7-6.5-2.4
				C183.8,56.3,196.7,64.2,207.4,74.9z"/>
			<path class="st0" d="M170.6,69.4c-0.1-0.1-0.3-0.1-0.4-0.2c-1.2-0.5-2.3-0.9-3.5-1.4C168,68.4,169.3,68.9,170.6,69.4z"/>
			<path class="st0" d="M169.6,51.7c-0.6-0.2-1.2-0.4-1.9-0.6C168.4,51.3,169,51.5,169.6,51.7z"/>
			<path class="st0" d="M167.7,51.1c-0.4-0.1-0.9-0.3-1.3-0.4C166.9,50.8,167.3,50.9,167.7,51.1z"/>
			<path class="st0" d="M166.6,67.9c-0.6-0.2-1.2-0.4-1.8-0.6C165.3,67.5,165.9,67.7,166.6,67.9z"/>
			<path class="st0" d="M164.7,67.3c-0.6-0.2-1.2-0.4-1.8-0.6C163.5,66.9,164.1,67.1,164.7,67.3z"/>
			<path class="st0" d="M163.6,49.9c-1.4-0.4-2.7-0.7-4.1-1C160.8,49.2,162.2,49.5,163.6,49.9z"/>
			<path class="st0" d="M160.4,66c-0.3-0.1-0.7-0.2-1.1-0.3C159.7,65.8,160.1,65.9,160.4,66z"/>
			<path class="st0" d="M157.9,65.3c-0.5-0.1-1.1-0.2-1.6-0.4C156.9,65.1,157.4,65.2,157.9,65.3z"/>
			<path class="st0" d="M155.9,64.9c-0.4-0.1-0.9-0.2-1.3-0.3C155.1,64.7,155.5,64.8,155.9,64.9z"/>
			<path class="st0" d="M154.1,64.6c-0.5-0.1-1.1-0.2-1.6-0.3C153.1,64.4,153.6,64.5,154.1,64.6z"/>
			<path class="st0" d="M159.5,49c-2.8-0.6-5.7-1-8.6-1.4C153.8,47.9,156.6,48.3,159.5,49z"/>
			<path class="st0" d="M152.5,64.3c-0.6-0.1-1.2-0.2-1.8-0.3C151.3,64.1,151.9,64.2,152.5,64.3z"/>
			<path class="st0" d="M150.4,47.5c-0.6-0.1-1.3-0.1-1.9-0.2C149.1,47.4,149.8,47.4,150.4,47.5z"/>
			<path class="st0" d="M148.6,63.8c-0.5,0-1-0.1-1.5-0.1C147.5,63.7,148,63.7,148.6,63.8z"/>
			<path class="st0" d="M148.4,47.3c-0.7-0.1-1.5-0.1-2.2-0.2C146.9,47.2,147.7,47.3,148.4,47.3z"/>
			<path class="st0" d="M147,63.6c-0.6,0-1.1-0.1-1.7-0.1C145.9,63.5,146.4,63.6,147,63.6z"/>
			<path class="st0" d="M146.2,47.2c-0.7,0-1.4-0.1-2.1-0.1C144.8,47.1,145.5,47.1,146.2,47.2z"/>
			<path class="st0" d="M144.9,63.5c-0.4,0-0.9-0.1-1.4-0.1C144,63.4,144.5,63.4,144.9,63.5z"/>
			<path class="st0" d="M104.1,230.6c34.4,13.9,75.4,7,103.3-20.8c3.9-3.9,7.5-8.2,10.6-12.6c-2.2,3.1-4.6,6.1-7.1,8.9
				c-17,18.9-40.4,30.1-65.8,31.4C130.6,238.2,116.7,235.7,104.1,230.6z"/>
			<path class="st0" d="M106.7,213.9c29.2,13.5,65,8.3,89.1-15.7c1.9-1.9,3.6-3.8,5.3-5.8c-0.8,0.9-1.6,1.9-2.4,2.8
				c-14.1,15.7-33.5,24.9-54.6,26C130.8,221.9,118,219.2,106.7,213.9z"/>
			<path class="st0" d="M111.5,68.6c-0.7,0.3-1.3,0.5-2,0.8C110.2,69.1,110.9,68.8,111.5,68.6z"/>
			<path class="st0" d="M107.9,52.5c8.6-3.1,17.7-4.9,27-5.4c2.9-0.1,5.8-0.2,8.7-0.1c-4.4,0-8,3.4-8.1,7.8
				c-0.2,4.5,3.3,8.3,7.8,8.5c-2.5-0.1-5-0.1-7.5,0c-7.8,0.4-15.4,1.9-22.5,4.5c0.1,0,0.3-0.1,0.4-0.1c4.5-1.6,6.8-6.8,4.6-11.3
				C116.5,52.7,111.9,51.1,107.9,52.5z"/>
			<path class="st0" d="M109.6,69.4c-0.6,0.3-1.3,0.5-1.9,0.8C108.3,69.9,108.9,69.6,109.6,69.4z"/>
			<path class="st0" d="M107.9,52.5c-0.8,0.3-1.7,0.6-2.5,0.9C106.3,53.1,107.1,52.8,107.9,52.5z"/>
			<path class="st0" d="M104.9,213c0.6,0.3,1.2,0.6,1.8,0.8C106.1,213.6,105.5,213.3,104.9,213z"/>
			<path class="st0" d="M105.4,53.4c-0.8,0.3-1.6,0.6-2.4,1C103.8,54,104.6,53.7,105.4,53.4z"/>
			<path class="st0" d="M104,71.9c-0.5,0.2-0.9,0.5-1.4,0.7C103.1,72.4,103.5,72.2,104,71.9z"/>
			<path class="st0" d="M103,54.4c-0.8,0.3-1.5,0.7-2.3,1C101.5,55,102.2,54.7,103,54.4z"/>
			<path class="st0" d="M102.5,72.7c-0.5,0.3-1,0.6-1.5,0.8C101.5,73.3,102,73,102.5,72.7z"/>
			<path class="st0" d="M100.6,73.8c-0.5,0.3-0.9,0.5-1.4,0.8C99.7,74.3,100.2,74,100.6,73.8z"/>
			<path class="st0" d="M100.2,55.6c-0.7,0.3-1.3,0.6-2,0.9C98.9,56.2,99.5,55.9,100.2,55.6z"/>
			<path class="st0" d="M98.2,56.6c-0.7,0.3-1.4,0.7-2.1,1.1C96.8,57.3,97.5,56.9,98.2,56.6z"/>
			<path class="st0" d="M94.2,225.8c1.3,0.7,2.6,1.4,3.9,2.1C96.8,227.3,95.5,226.6,94.2,225.8z"/>
			<path class="st0" d="M93.2,59.2c-0.3,0.2-0.7,0.4-1,0.6C92.5,59.6,92.9,59.4,93.2,59.2z"/>
			<path class="st0" d="M94.3,77.8c-1,0.8-2.1,1.5-3.1,2.3C92.3,79.3,93.3,78.5,94.3,77.8z"/>
			<path class="st0" d="M92.2,59.8c-0.5,0.3-1,0.6-1.5,0.8C91.2,60.3,91.7,60,92.2,59.8z"/>
			<path class="st0" d="M91.3,80.1c-0.5,0.4-1,0.8-1.5,1.2C90.2,80.9,90.7,80.5,91.3,80.1z"/>
			<path class="st0" d="M90.7,60.6c-0.7,0.4-1.3,0.8-2,1.2C89.4,61.4,90.1,61,90.7,60.6z"/>
			<path class="st0" d="M89.7,81.3c-0.5,0.4-1,0.8-1.5,1.3C88.8,82.2,89.2,81.7,89.7,81.3z"/>
			<path class="st0" d="M88.3,82.6c-0.4,0.3-0.8,0.7-1.2,1C87.5,83.3,87.9,82.9,88.3,82.6z"/>
			<path class="st0" d="M87.1,83.6c-0.3,0.2-0.5,0.4-0.7,0.7C86.6,84.1,86.8,83.8,87.1,83.6z"/>
			<path class="st0" d="M86.3,84.3c-0.3,0.3-0.7,0.6-1,0.9C85.7,84.9,86,84.6,86.3,84.3z"/>
			<path class="st0" d="M103.6,212.4c-7-3.6-13.6-8.4-19.5-14.3c-13-13-20.9-29.7-22.7-47.7C64.2,177.6,80.7,200.4,103.6,212.4z"/>
			<path class="st0" d="M84.2,86.4c0.4-0.4,0.8-0.8,1.2-1.2c-1.4,1.4-2.8,2.8-4.1,4.2c-0.4,0.5-0.8,0.9-1.2,1.4
				C81.4,89.3,82.7,87.8,84.2,86.4z"/>
			<path class="st0" d="M84.9,64.4c-0.4,0.3-0.8,0.5-1.1,0.8C84.2,65,84.5,64.7,84.9,64.4z"/>
			<path class="st0" d="M81,67.3c-0.4,0.4-0.9,0.7-1.3,1.1C80.1,68.1,80.6,67.7,81,67.3z"/>
			<path class="st0" d="M79.1,69c-0.4,0.3-0.8,0.6-1.1,0.9C78.3,69.6,78.7,69.3,79.1,69z"/>
			<path class="st0" d="M77.2,70.6c-0.4,0.4-0.9,0.8-1.3,1.2C76.3,71.3,76.8,70.9,77.2,70.6z"/>
			<path class="st0" d="M75.7,71.9c-0.5,0.5-1.1,1-1.6,1.5C74.6,72.9,75.1,72.4,75.7,71.9z"/>
			<path class="st0" d="M80.1,90.8c-2,2.3-3.8,4.7-5.5,7.2C76.2,95.6,78,93.2,80.1,90.8z"/>
			<path class="st0" d="M94.2,225.8c-7.8-4.2-15.1-9.6-21.6-16.2c-15-15.1-24.4-34.3-27.1-55.1C49.5,185.5,68.2,211.6,94.2,225.8z"
				/>
			<path class="st0" d="M74.5,98.1c-2.7,4-5,8.2-7,12.6C69.5,106.3,71.8,102.1,74.5,98.1z"/>
			<path class="st0" d="M66.2,114c0.4-1.1,0.9-2.2,1.4-3.3C67.1,111.8,66.6,112.9,66.2,114z"/>
			<path class="st0" d="M66.2,114c-0.2,0.6-0.4,1.1-0.6,1.7C65.8,115.1,66,114.6,66.2,114z"/>
			<path class="st0" d="M65.6,115.7c-0.6,1.5-1.1,3.1-1.5,4.7C64.5,118.8,65,117.2,65.6,115.7z"/>
			<path class="st0" d="M63.4,122.7c-0.1,0.4-0.2,0.9-0.3,1.3C63.2,123.5,63.3,123.1,63.4,122.7z"/>
			<path class="st0" d="M62.9,125.2c-0.1,0.5-0.2,1-0.3,1.5C62.6,126.2,62.8,125.7,62.9,125.2z"/>
			<path class="st0" d="M62.5,126.7c-0.1,0.6-0.2,1.1-0.3,1.7C62.3,127.8,62.4,127.2,62.5,126.7z"/>
			<path class="st0" d="M62.1,129c-0.1,0.5-0.2,1-0.2,1.5C62,130,62,129.5,62.1,129z"/>
			<path class="st0" d="M61.9,130.5c-0.1,0.5-0.2,1-0.2,1.6C61.7,131.5,61.8,131,61.9,130.5z"/>
			<path class="st0" d="M61.7,132.1c0,0.3-0.1,0.5-0.1,0.8C61.6,132.6,61.6,132.3,61.7,132.1z"/>
			<path class="st0" d="M61.4,134.4c-0.1,0.5-0.1,1.1-0.1,1.6C61.3,135.4,61.3,134.9,61.4,134.4z"/>
			<path class="st0" d="M61.1,146.8c0.1,1.2,0.2,2.4,0.3,3.6C61.3,149.2,61.2,148,61.1,146.8z"/>
			<path class="st0" d="M61.1,138.3c-0.1,1.3-0.1,2.6-0.1,3.9C61,140.9,61,139.6,61.1,138.3z"/>
			<path class="st0" d="M61,142.3c0,1.3,0,2.6,0.1,3.9C61,144.9,61,143.6,61,142.3z"/>
			<path class="st0" d="M69.1,78.5c-8.9,9.9-15.6,21.4-19.6,33.7c4.6-13.9,12.5-26.7,23.2-37.4c0.5-0.5,0.9-0.9,1.4-1.4
				C72.4,75.1,70.7,76.8,69.1,78.5z"/>
			<path class="st0" d="M48,117.2c-0.2,0.5-0.3,1.1-0.4,1.7C47.7,118.3,47.8,117.8,48,117.2z"/>
			<path class="st0" d="M47.5,118.9c-0.2,0.8-0.4,1.5-0.5,2.3C47.2,120.4,47.3,119.6,47.5,118.9z"/>
			<path class="st0" d="M47,121.2c-0.5,2.3-0.9,4.5-1.3,6.8C46.1,125.7,46.5,123.4,47,121.2z"/>
			<path class="st0" d="M45,150.5c0,0.5,0.1,1.1,0.1,1.6C45.1,151.5,45.1,151,45,150.5z"/>
			<path class="st0" d="M44.9,149.4c0,0.4,0.1,0.7,0.1,1.1C45,150.1,45,149.8,44.9,149.4z"/>
			<path class="st0" d="M44.9,149.3c0-0.7-0.1-1.3-0.1-2c0-0.1,0-0.2,0-0.3C44.8,147.8,44.9,148.5,44.9,149.3z"/>
			<path class="st0" d="M45.7,128.1c-0.6,3.8-0.9,7.7-1,11.7C44.8,135.9,45.1,132,45.7,128.1z"/>
			<path class="st0" d="M44.7,139.8c0,0.8,0,1.6,0,2.4c0,0.8,0,1.6,0,2.5C44.7,143,44.7,141.4,44.7,139.8z"/>
		</g>
		<g>
		</g>
	</g>
</g>
</svg>
