<?xml version="1.0" encoding="utf-8"?>
<!-- Generator: Adobe Illustrator 24.0.2, SVG Export Plug-In . SVG Version: 6.00 Build 0)  -->
<svg version="1.1" id="Capa_1" xmlns="http://www.w3.org/2000/svg" xmlns:xlink="http://www.w3.org/1999/xlink" x="0px" y="0px"
	 viewBox="0 0 448 448" style="enable-background:new 0 0 448 448;" xml:space="preserve">
<style type="text/css">
	.st0{fill:#9292A2;}
</style>
<g>
	<g>
		<g>
			<path class="st0" d="M256,32C150,32,64,118,64,224H0l85.3,85.3l85.3-85.3h-64c0-82.5,66.9-149.3,149.3-149.3
				S405.3,141.5,405.3,224S338.5,373.3,256,373.3c-32.3,0-62.1-10.3-86.6-27.8l-30.2,30.6c32.4,25,72.9,39.9,116.8,39.9
				c106,0,192-86,192-192S362,32,256,32z"/>
			<path class="st0" d="M298.7,224c0-23.6-19.1-42.7-42.7-42.7s-42.7,19.1-42.7,42.7s19.1,42.7,42.7,42.7S298.7,247.6,298.7,224z"/>
		</g>
	</g>
</g>
</svg>
